<svg height="512" width="512" xmlns="http://www.w3.org/2000/svg"><path clip-rule="evenodd" d="m19.316 366.6029968v-216.7700042c0-12.0299988 9.7520008-21.7810059 21.7810001-21.7810059h429.8049927c12.0289917 0 21.7810059 9.7519989 21.7810059 21.7810059v216.7700043c0 12.0289917-9.7520142 21.7810059-21.7810059 21.7810059h-429.8050079c-12.0289993 0-21.7819996-9.7520142-21.7819996-21.7810059h.0010147zm436.6479893-246.901001v-48.9109954h-68.9570007v48.9109955h68.9570007zm-68.9570008 278.4079896v43.8439941h68.9570007v-43.8439941zm53.4550171-336.9929886-4.3439941-61.1169968h-28.519989l-5.0889893 61.1169968h37.95401zm-37.9530029 389.7670059 5.0889892 61.1159973h28.519989l4.3439941-61.1159973h-37.95401zm-55.8160095-331.1820069v-48.9109954h-68.9570007v48.9109955h68.9570007zm-68.9570008 278.4079896v43.8439941h68.9570007v-43.8439941zm53.4559937-336.9929886-4.3439942-61.1169968h-28.519989l-5.0889893 61.1169968h37.95401zm-37.9539795 389.7670059 5.0889892 61.1159973h28.519989l4.3439941-61.1159973h-37.95401zm-55.8160095-331.1820069v-48.9109954h-68.9570007v48.9109955h68.9570007zm-68.9570008 278.4079896v43.8439941h68.9570007v-43.8439941zm53.4560089-336.9929886-4.3450012-61.1169968h-28.5200043l-5.0890045 61.1169968h37.9530029zm-37.95401 389.7670059 5.0890046 61.1159973h28.5200043l4.3450012-61.1159973h-37.9530029zm-55.8159942-331.1820069v-48.9109954h-68.9570008v48.9109955h68.9570008zm-68.9570008 278.4079896v43.8439941h68.9570007v-43.8439941zm53.4560013-336.9929886-4.3440017-61.1169968h-28.5200043l-5.0889969 61.1169968h37.9540024zm-37.9540024 389.7670059 5.0889969 61.1159973h28.5199966l4.3440018-61.1159973zm315.6954194-149.7316284c-61.5627441 69.6324463-250.3877869 63.6724854-286.0517273-16.5291443h-39.9096375c28.4462357 104.4486389 268.2017212 108.7487182 325.9613648 16.5291443zm57.1785278-70.6506653c-28.4461975-104.4486542-268.2017212-108.748848-325.9614258-16.5293121 61.5627899-69.6324005 250.3878479-63.6723633 286.0517578 16.5292969zm-276.6602783 51.3225098c.6401367 0 1.1201172.1591797 1.1201172 1.2792969.3198242 4.9599609 2.5600586 11.8408203 6.4003906 18.0810547 4.6396484 7.359375 12.4799805 10.8798828 20.1601562 10.8798828s20.0004883-5.1201172 20.0004883-17.7607422c0-13.2802734-2.5600586-17.1201172-23.3603516-24.9609375-4.800293-1.7597656-15.0405273-6.8798828-23.2006836-13.9194336-5.6000977-4.9604492-8-13.4404297-8-22.7207031 0-9.7602539 2.3999023-16.3203125 12-23.5205078 7.2001953-5.4399414 13.2802734-7.6801758 23.0405273-7.6801758 11.6801758 0 17.9204102 1.9199219 21.2807617 3.2001953 1.5996094.6396484 2.7197266.3198242 3.6796875-.800293l2.0800781-2.0800781c.6401367-.6396484 1.4404297-.9599609 2.4003906-.9599609 1.1201172 0 1.4399414 1.7602539 1.6000977 2.7202148l2.5600586 27.3603516c0 .6401367-.3203125.800293-.800293.9604492l-3.5200195 1.1196289c-.7998047.3203125-1.6000977 0-2.0800781-1.1196289-1.7597656-4.6401367-4.4799805-10.8803711-9.9204102-16.640625-4-4.4799805-8.7998047-6.7202148-16-6.7202148-12.0004883 0-16.9604492 10.4003906-16.9604492 14.5605469 0 5.9199219.1601562 10.7202148 4.1601562 14.7202148 4.1601562 4.3203125 13.2802734 8.1601562 21.1201172 10.4003906 7.6801758 2.2397461 13.9204102 6.2397461 20.4804688 12.159668 6.2402344 5.6005859 8.800293 12.640625 8.800293 23.8408203 0 19.5205078-13.9204102 35.3613281-35.0405273 35.3613281-14.4003906 0-21.9208984-2.4003906-28.640625-6.8808594-1.9204102-1.2792969-2.8803711-1.7597656-3.6801758-1.7597656-.9599609 0-1.6000977 1.1201172-2.5600586 2.7197266-.9599609 1.7607422-1.7602539 1.9208984-2.8803711 1.9208984-1.7597656 0-2.3999023-.8007812-2.2397461-2.5605469l2.5600586-30.4003906c.159668-1.1201172.6401367-1.1201172 1.2797852-1.1201172zm152.8481445-77.2822266c0-.7998047.1601562-1.1201172.9599609-1.1201172 1.4404297 0 8.7998047.4799805 19.5205078.4799805 14.8808594 0 18.8808594-.4799805 20.3203125-.4799805.9599609 0 1.1201172.3203125 1.1201172 1.4399414v4.0004883c0 .6396484-.1601562 1.1196289-1.1201172 1.1196289h-3.6796875c-2.7207031 0-7.6806641 1.1201172-11.8408203 8.3203125-6.4003906 10.8803711-13.2802734 29.7607422-19.3603516 43.2006836-4 8.640625-22.0800781 51.5214844-24.8007812 56.1621094-1.1201172 1.9199219-1.9199219 2.7197266-3.6796875 2.7197266-2.0800781 0-2.7197266-1.9199219-3.6806641-4-5.9199219-12.640625-20.4804688-51.3613281-24.9599609-62.4018555-4.4804688-11.0400391-12.4804688-34.2407227-14.4003906-38.7207031-1.6005859-3.6801758-3.5205078-5.2802734-6.8803711-5.2802734h-4.1601562c-.6401367 0-.800293-.7998047-.800293-1.6000977v-3.8398438c0-.7998047.1601562-1.1201172 1.1201172-1.1201172 1.6000977 0 6.8803711.4799805 26.0810547.4799805 16.640625 0 23.8408203-.4799805 25.2802734-.4799805 1.4404297 0 1.6005859.4799805 1.6005859 1.4399414v3.6801758c0 .800293-.1601562 1.4399414-1.2802734 1.4399414h-6.8798828c-3.8408203 0-6.8808594 1.7602539-6.8808594 3.840332 0 1.2797852 0 3.2001953.4804688 5.4399414 1.2802734 5.7602539 7.3603516 24.8007812 10.7197266 34.0810547l12.1611328 35.6811523h.6396484c4.6396484-10.7207031 12.4804688-30.7216797 14.5605469-36.4814453 3.0400391-7.8398438 8-21.2802734 10.5595703-28.4804688 1.6005859-4.1601562 1.6005859-6.8803711 1.6005859-8.800293s-1.9199219-5.2802734-6.5605469-5.2802734h-4.9599609c-.6396484 0-.7998047-.4799805-.7998047-1.4399414z" fill-rule="evenodd"/></svg>